<?xml version="1.0" encoding="UTF-8" standalone="no"?>
<!-- Created with Inkscape (http://www.inkscape.org/) -->

<svg
   width="32mm"
   height="32mm"
   viewBox="0 0 16 16"
   version="1.1"
   id="svg5"
   xml:space="preserve"
   inkscape:version="1.2.2 (b0a8486541, 2022-12-01)"
   sodipodi:docname="ToggleAnalysis32.svg"
   xmlns:inkscape="http://www.inkscape.org/namespaces/inkscape"
   xmlns:sodipodi="http://sodipodi.sourceforge.net/DTD/sodipodi-0.dtd"
   xmlns="http://www.w3.org/2000/svg"
   xmlns:svg="http://www.w3.org/2000/svg"><sodipodi:namedview
     id="namedview7"
     pagecolor="#505050"
     bordercolor="#eeeeee"
     borderopacity="1"
     inkscape:showpageshadow="0"
     inkscape:pageopacity="0"
     inkscape:pagecheckerboard="0"
     inkscape:deskcolor="#505050"
     inkscape:document-units="mm"
     showgrid="false"
     inkscape:zoom="2.7865881"
     inkscape:cx="13.457317"
     inkscape:cy="32.835854"
     inkscape:window-width="1920"
     inkscape:window-height="1008"
     inkscape:window-x="0"
     inkscape:window-y="0"
     inkscape:window-maximized="1"
     inkscape:current-layer="layer1" /><defs
     id="defs2" /><g
     inkscape:label="Layer 1"
     inkscape:groupmode="layer"
     id="layer1"><rect
       style="fill:#000000;fill-opacity:0;stroke:#478bbb;stroke-width:0.550377;stroke-dasharray:none;stroke-opacity:1"
       id="rect908"
       width="3.116616"
       height="0.29645452"
       x="1.2977902"
       y="0.81183285" /><rect
       style="fill:#000000;fill-opacity:0;stroke:#478bbb;stroke-width:0.567836;stroke-dasharray:none;stroke-opacity:1"
       id="rect908-3"
       width="3.4826775"
       height="0.28239274"
       x="0.79975009"
       y="-1.6055536"
       transform="matrix(-0.01074891,0.99994223,-0.99979888,-0.02005495,0,0)" /><rect
       style="fill:#000000;fill-opacity:0;stroke:#478bbb;stroke-width:0.550377;stroke-dasharray:none;stroke-opacity:1"
       id="rect908-5"
       width="3.116616"
       height="0.29645452"
       x="-15.140471"
       y="1.2651392"
       transform="rotate(-90)" /><rect
       style="fill:#000000;fill-opacity:0;stroke:#478bbb;stroke-width:0.567836;stroke-dasharray:none;stroke-opacity:1"
       id="rect908-3-3"
       width="3.4826775"
       height="0.28239274"
       x="1.5826677"
       y="14.827598"
       transform="matrix(0.99994223,0.01074891,-0.02005495,0.99979888,0,0)" /><rect
       style="fill:#afd4ec;fill-opacity:1;stroke:#478bbb;stroke-width:0.529167;stroke-dasharray:none;stroke-opacity:1"
       id="rect3607"
       width="5.4756699"
       height="5.1713805"
       x="2.6587565"
       y="2.8348932" /><rect
       style="fill:#afd4ec;fill-opacity:1;stroke:#478bbb;stroke-width:0.529167;stroke-dasharray:none;stroke-opacity:1"
       id="rect3607-9"
       width="5.4756699"
       height="5.1713805"
       x="2.6587567"
       y="8.0062742" /><rect
       style="fill:#afd4ec;fill-opacity:0;stroke:#696969;stroke-width:0.529167;stroke-dasharray:none;stroke-opacity:1"
       id="rect3607-7"
       width="5.4756699"
       height="5.1713805"
       x="8.2645836"
       y="2.8348932" /><rect
       style="fill:#afd4ec;fill-opacity:0;stroke:#696969;stroke-width:0.529167;stroke-dasharray:none;stroke-opacity:1"
       id="rect3607-9-0"
       width="5.4756699"
       height="5.1713805"
       x="8.2645836"
       y="8.0062742" /><rect
       style="fill:#696969;fill-opacity:1;stroke:#696969;stroke-width:0.529167;stroke-dasharray:none;stroke-opacity:1"
       id="rect3665"
       width="0.6038937"
       height="13.618036"
       x="7.7951164"
       y="1.3834758" /><g
       id="g5197"
       transform="matrix(0.90334183,0,0,0.90334183,-16.89324,3.5827273)"
       style="fill:#434343;fill-opacity:1;stroke:#434343"><path
         id="path1077"
         style="fill:#434343;fill-opacity:1;stroke:#434343;stroke-width:0.449717;stroke-dasharray:none;stroke-opacity:1"
         inkscape:label="path1077"
         d="m 27.536967,-0.01085975 c -1.507165,0 -3.011501,0.4495073 -4.271573,1.27640775 -1.203148,0.789545 -2.17903,1.9204361 -2.78691,3.2246093 l 0.414558,-0.010626 c 0.01408,0.033142 -0.02194,0.2669756 -0.35878,0.093647 -0.01303,0.02903 0,0 -0.06172,0.1030139 v 0 c 0.600518,1.3142009 1.574488,2.4558914 2.779675,3.2532904 1.261777,0.8348401 2.771794,1.2893271 4.284751,1.2893271 1.512958,0 3.022975,-0.454487 4.284752,-1.2893271 1.205186,-0.7973991 2.179157,-1.9390896 2.779675,-3.2532901 l -0.20273,-0.1976969 c -0.01266,-0.029183 0.255029,0.1396419 0.241999,0.1106219 0.01455,-0.032935 -0.402853,0.052916 -0.388773,0.019775 l 0.343553,-0.118735 C 33.987571,3.1859841 33.011689,2.055093 31.808541,1.265548 30.548468,0.43864755 29.044133,-0.01085975 27.536967,-0.01085975 Z m -0.0031,0.9523966 c 2.011313,-1.214e-4 3.641874,1.63032495 3.641895,3.64163805 -2.1e-5,2.0113132 -1.630583,3.6417594 -3.641896,3.6416377 -2.011213,-2.08e-5 -3.641617,-1.6304253 -3.641638,-3.6416377 2.1e-5,-2.0112128 1.630426,-3.64161765 3.641639,-3.64163805 z"
         sodipodi:nodetypes="sscccccssscccccssccccc" /><circle
         style="fill:#434343;fill-opacity:1;stroke:#434343;stroke-width:0;stroke-dasharray:none;stroke-opacity:1"
         id="path4324"
         cx="27.533964"
         cy="4.5832138"
         r="2.5750537" /></g></g></svg>
